MoBL_ARMS_module2_4_allmuscles_wrist_states		
version=1		
nRows=308		
nColumns=3		
inDegrees=yes		
		
# SIMM Motion File Header:		
name MoBL_ARMS_module2_4_allmuscles_wrist_states		
datacolumns 3		
datarows 308		
otherdata 1		
range 3.241419879 3.916336974		
endheader		
time	deviation	flexion
3.241419879	0.066843293	0.524845458
3.243372415	0.068586153	0.521944362
3.245324951	0.070309131	0.51903878
3.247277486	0.072007459	0.516129043
3.249854597	0.074207726	0.51228155
3.252360235	0.076301559	0.508531072
3.254495459	0.078052539	0.505325576
3.256630682	0.079776064	0.502110087
3.258765906	0.081476305	0.498884146
3.26090113	0.083157277	0.495647901
3.263036354	0.084818769	0.492400427
3.265623077	0.086795573	0.488445911
3.267611689	0.088275286	0.485383395
3.2696003	0.089706198	0.48229271
3.272085115	0.091409168	0.478377791
3.27456993	0.093010909	0.474391034
3.276428928	0.094146402	0.471356173
3.278287926	0.095232559	0.468274042
3.280899048	0.09668045	0.463861362
3.28351017	0.098038249	0.459345323
3.2853573	0.098941103	0.456083946
3.287204431	0.099793861	0.452764354
3.289765288	0.100894845	0.448063504
3.292256746	0.101884509	0.44338134
3.294399007	0.102682561	0.439273823
3.296541267	0.103441651	0.435096288
3.298683527	0.10416758	0.43085396
3.300066903	0.104619439	0.428082056
3.300460115	0.104745412	0.427289696
3.300853327	0.104870429	0.426495447
3.302819388	0.105481461	0.422496937
3.304785449	0.106067507	0.418454832
3.30836224	0.107066937	0.410999227
3.311939031	0.10799187	0.403433558
3.314169191	0.108542595	0.398674635
3.316399351	0.109081225	0.393893832
3.31862951	0.109612081	0.389099115
3.32085967	0.110135764	0.384297664
3.323089829	0.110645087	0.37949718
3.325058393	0.111070799	0.375268216
3.327026956	0.111464016	0.371054929
3.32857604	0.111747835	0.36775532
3.330626991	0.112090809	0.363414317
3.33398228	0.112589083	0.356395949
3.33733757	0.113042859	0.34949904
3.339022529	0.113264393	0.346085683
3.340756066	0.113491849	0.342610349
3.342489603	0.113720643	0.339172623
3.345981841	0.114190171	0.332362845
3.348908957	0.114594732	0.326774386
3.351152919	0.11491184	0.322563575
3.353396881	0.115234721	0.318415906
3.355640843	0.115562876	0.314330751
3.357884805	0.115895663	0.310307386
3.360128767	0.116232293	0.30634501
3.362086738	0.116528476	0.3029368
3.36404471	0.116826354	0.299573799
3.366468516	0.11719669	0.295472439
3.368892322	0.117567902	0.291438518
3.370910356	0.117876897	0.288130968
3.37292839	0.118185391	0.284869467
3.374946424	0.118493154	0.28165357
3.377712557	0.118913602	0.277318539
3.379729004	0.119218976	0.274210692
3.381745451	0.119523267	0.271146168
3.384244	0.119898204	0.267408628
3.386470927	0.120229457	0.264133483
3.388697853	0.120557165	0.260912107
3.390924779	0.120881044	0.257745429
3.393151706	0.121201183	0.254633912
3.395378632	0.121517775	0.251577209
3.397605558	0.121830916	0.248574252
3.399567753	0.122103912	0.245971658
3.401529947	0.122373979	0.243408522
3.403987477	0.122707591	0.240252124
3.406445007	0.123035212	0.237153119
3.408397107	0.123290342	0.234730453
3.410349206	0.123540062	0.232340513
3.412870692	0.123853413	0.229299149
3.415392178	0.124155652	0.22630616
3.417279425	0.124374496	0.22409586
3.419166671	0.124587041	0.221909816
3.421774568	0.124870423	0.218926898
3.424112896	0.125114451	0.216287732
3.426451223	0.125348465	0.21368052
3.428409356	0.125535224	0.211521302
3.430367488	0.125711677	0.209384194
3.432817832	0.125916002	0.206742035
3.435268175	0.126102173	0.204137394
3.437234988	0.12624047	0.202075272
3.439201802	0.126371556	0.200039552
3.441672657	0.126530279	0.197520485
3.444143512	0.126687021	0.195044636
3.44605931	0.126809443	0.193154723
3.447975108	0.126933763	0.191290597
3.450513292	0.127102422	0.188859994
3.453051476	0.127276385	0.18647291
3.45492501	0.127408557	0.184737941
3.456798544	0.127544178	0.183025088
3.459414087	0.127739473	0.180669228
3.461755673	0.127920019	0.178593246
3.46409726	0.12810527	0.176546594
3.466107152	0.128267262	0.174811774
3.468117045	0.128431376	0.173095943
3.470536956	0.128631273	0.171053728
3.472956867	0.128833387	0.169035731
3.474908225	0.128997765	0.167425046
3.476859582	0.129163014	0.165828314
3.479375368	0.129376161	0.163788968
3.481891153	0.129587411	0.161769582
3.483783696	0.12974385	0.160262696
3.485676239	0.129897515	0.15876587
3.488279364	0.130103909	0.156723259
3.490610704	0.13028414	0.15491019
3.492942045	0.130460699	0.15311316
3.494913049	0.130607562	0.151606819
3.496884052	0.130752623	0.150112639
3.499317809	0.130930141	0.148284996
3.501751565	0.131107547	0.146477515
3.503686149	0.131250129	0.145056148
3.504208095	0.131289045	0.144675137
3.504730041	0.131328101	0.144295216
3.507339771	0.131525933	0.14241266
3.509949501	0.131729979	0.140559856
3.512050998	0.131900029	0.139090158
3.514152495	0.132075354	0.137640231
3.516253992	0.132255411	0.136209497
3.518777511	0.132476653	0.134515634
3.520863473	0.13266253	0.133134353
3.522949436	0.132850115	0.131769248
3.525035398	0.133038574	0.130419534
3.527590193	0.13326946	0.128786325
3.529679788	0.133457416	0.127465818
3.531769382	0.133643408	0.126158074
3.533858976	0.133826607	0.124862226
3.536408572	0.134045571	0.123296145
3.538496162	0.134220675	0.122025443
3.540583753	0.134391802	0.120764724
3.542671344	0.134558831	0.119513689
3.545226345	0.134757515	0.117995392
3.547313631	0.134915143	0.11676538
3.549400918	0.13506887	0.115544768
3.551488205	0.135219274	0.11433389
3.554045221	0.135400044	0.11286462
3.556131795	0.135545524	0.11167806
3.558218368	0.13568954	0.11050343
3.560304941	0.135831989	0.109341354
3.562864596	0.13600414	0.107934302
3.564950699	0.136141984	0.10680489
3.567036803	0.136277314	0.105694474
3.569122906	0.136409693	0.10460764
3.571682042	0.136567113	0.10331468
3.573770775	0.136690584	0.102298809
3.575859509	0.136808617	0.101323312
3.577948243	0.136920415	0.100391878
3.580498905	0.137047543	0.099318639
3.582587926	0.137143088	0.09849556
3.584676946	0.137229786	0.097726004
3.586765966	0.137306758	0.097012851
3.589318306	0.137387588	0.096220995
3.591405087	0.137444002	0.095639181
3.593491869	0.137493135	0.095115133
3.595578651	0.137536185	0.094645981
3.598136723	0.137582063	0.094139722
3.600223406	0.137614912	0.093777147
3.602310089	0.137645168	0.093454211
3.604396771	0.137675517	0.093165266
3.60695629	0.137718187	0.092848214
3.60904191	0.137761344	0.092612023
3.611127529	0.137814311	0.092387475
3.613213148	0.137877683	0.092166457
3.615730121	0.137967001	0.09189293
3.617877017	0.138053429	0.091644417
3.620023914	0.138150073	0.09137439
3.62217081	0.138258883	0.091076991
3.624317706	0.13838167	0.090747552
3.626464603	0.138519355	0.090382606
3.628611499	0.138671783	0.089979987
3.631219073	0.138875247	0.089439203
3.633163467	0.13903885	0.088999456
3.635107861	0.139211955	0.088529733
3.637648414	0.139451988	0.087873645
3.640188967	0.139707175	0.087174083
3.642013722	0.139899323	0.086648044
3.643838478	0.140098355	0.08610511
3.646528598	0.140403045	0.085279709
3.648952542	0.140687209	0.084517224
3.651102426	0.140944999	0.083831562
3.65325231	0.141206543	0.08314146
3.655402194	0.141470447	0.08245059
3.657552078	0.141735631	0.081762117
3.659701962	0.142001574	0.081078898
3.661851846	0.142268231	0.080403612
3.66400173	0.142535521	0.079738688
3.666648682	0.142864897	0.078937257
3.668558867	0.143101877	0.078372054
3.670469052	0.143337119	0.077818269
3.673057467	0.143651268	0.077085663
3.675645882	0.143959002	0.076372031
3.677445609	0.144169482	0.075885854
3.679245336	0.1443778	0.075407045
3.681999041	0.14469374	0.074687046
3.684464559	0.144973846	0.074052911
3.686575053	0.145210026	0.073515228
3.688685546	0.14544043	0.072978857
3.69079604	0.145662263	0.072439565
3.692906534	0.14587318	0.071892771
3.695529058	0.146118256	0.071196496
3.697554863	0.146294864	0.070642122
3.699580669	0.14646177	0.070071258
3.702032316	0.146653185	0.069356839
3.704483964	0.146834819	0.068615085
3.706369549	0.146967785	0.068024582
3.708255135	0.147093571	0.067415018
3.710872151	0.147252242	0.066533773
3.713209729	0.147374326	0.06570842
3.715547307	0.147475893	0.064844832
3.717508541	0.1475457	0.064090608
3.719469775	0.147603018	0.063310232
3.721916547	0.147659908	0.062302328
3.724363318	0.147703089	0.061259277
3.726332078	0.14772862	0.060396375
3.728300837	0.147746044	0.059513849
3.730768091	0.147756655	0.058382356
3.733235345	0.147756333	0.057225968
3.735155124	0.147750847	0.056312205
3.737074902	0.147743142	0.055389279
3.739607071	0.14773257	0.054162529
3.74213924	0.147723547	0.052929926
3.744017075	0.147718003	0.052014405
3.74589491	0.147712951	0.051098932
3.748502395	0.147706135	0.049829637
3.750838596	0.147700514	0.048696363
3.753174797	0.147696185	0.047568991
3.755195153	0.14769395	0.04660016
3.75721551	0.147693126	0.04563785
3.759235866	0.147693265	0.04468243
3.761969069	0.147693839	0.043400965
3.764064043	0.147693955	0.042427314
3.766159016	0.147693591	0.041461125
3.76825399	0.147692861	0.040502523
3.770813995	0.147691975	0.039341847
3.772888621	0.147691856	0.038410342
3.774963247	0.147692763	0.037487472
3.777037873	0.147695061	0.036573719
3.779636208	0.147700427	0.035442945
3.781718025	0.147707166	0.034548594
3.783799841	0.14771657	0.033665305
3.785881658	0.147729217	0.03279383
3.788464165	0.147750372	0.031730388
3.790544494	0.147772569	0.030888893
3.792624823	0.147799957	0.030061717
3.794705152	0.147832972	0.029249513
3.797289479	0.147882381	0.028262257
3.799370643	0.147929432	0.027485368
3.801451808	0.147983537	0.026725244
3.803532973	0.148045481	0.025982358
3.806096518	0.14813432	0.025091479
3.808201898	0.148219231	0.024379995
3.810307278	0.148316111	0.023686681
3.812412658	0.148425876	0.023011303
3.814518038	0.148549498	0.022353412
3.817191207	0.148728392	0.021542214
3.819141835	0.148876235	0.020966305
3.821092464	0.149040403	0.020402907
3.823643696	0.149281858	0.019683234
3.826194927	0.14955505	0.018980872
3.827991371	0.149766898	0.018495379
3.829787815	0.149995207	0.018016447
3.832534135	0.150377137	0.017295253
3.835007131	0.150756369	0.016655363
3.837116026	0.151106745	0.016115441
3.839224922	0.15148157	0.015579699
3.841333818	0.151879773	0.015047205
3.843442713	0.152300106	0.014517344
3.846076422	0.152854507	0.013859072
3.848099836	0.153301709	0.013356197
3.850123251	0.15376664	0.012856283
3.852577659	0.154353058	0.01225454
3.854786327	0.154899833	0.011717897
3.856994996	0.155462182	0.011186139
3.859203664	0.156037518	0.010659473
3.861412332	0.156623417	0.010138155
3.863621	0.157217841	0.009622558
3.865829669	0.157819169	0.009113152
3.868038337	0.158425821	0.00861022
3.870247005	0.159035667	0.008113419
3.872455674	0.159646108	0.00762175
3.874664342	0.16025459	0.007133862
3.87687301	0.160859008	0.006648332
3.878851557	0.16139582	0.006214327
3.880830104	0.161927691	0.005780408
3.883260361	0.162574061	0.005246681
3.885690617	0.163213126	0.004711418
3.887665541	0.163727469	0.004274915
3.889640465	0.164237625	0.003836751
3.892125398	0.164873868	0.003282692
3.89461033	0.165504099	0.002725241
3.896509316	0.165981973	0.002296903
3.898408303	0.166457113	0.001866781
3.901000377	0.167102624	0.001277727
3.903592452	0.167746686	0.000688146
3.90547579	0.168214926	0.000260658
3.907359127	0.168683929	-0.000165267
3.909957173	0.169332197	-0.000749353
3.912555219	0.169981348	-0.001328665
3.914446097	0.170454002	-0.001746878
3.916336974	0.170926764	-0.002161824
